<svg style="max-width: 400px;" xmlns="http://www.w3.org/2000/svg" viewBox="0 0 652.69 194.62"><defs><style>.cls-1{stroke:rgb(36, 41, 47);fill:rgb(36, 41, 47);stroke-linecap:round;stroke-linejoin:round;stroke-width:1px;}</style></defs><path class="cls-1" d="M473.92,596.43a8.5,8.5,0,0,1-8.5,8.5H375.61c-21.23,0-29.5-17.27-29.5-38.5V487.77c0-15.71,3.78-28.5,19.5-28.5H392a21.49,21.49,0,0,0,21.5-21.5V422.19a8.51,8.51,0,0,1,8.5-8.5h0a8.5,8.5,0,0,1,8.5,8.5v15.58a38.5,38.5,0,0,1-38.5,38.5h-26.4a11.5,11.5,0,0,0-11.5,11.5v78.66a21.49,21.49,0,0,0,21.5,21.5h89.81a8.51,8.51,0,0,1,8.5,8.5Z" transform="translate(-204.04 -412.69)"/><path class="cls-1" d="M376.4,415.79H277.55A72.51,72.51,0,0,0,205,488.31h0a8.48,8.48,0,0,0,8.5,8.49h0a8.5,8.5,0,0,0,8.5-8.5h0a55.51,55.51,0,0,1,55.51-55.51h23c-2,3.07-3.07,7.2-3.07,12.69V601.76a4,4,0,0,0,8,0V445.48a12.69,12.69,0,0,1,12.69-12.69h58.2a8.5,8.5,0,0,0,0-17Z" transform="translate(-204.04 -412.69)"/><path class="cls-1" d="M631.26,415.46h-164a8.5,8.5,0,0,0,0,17h54.26c-1.59,2.77-2.42,6.44-2.42,11.23V602.31a4,4,0,0,0,8,0V443.69a11.23,11.23,0,0,1,11.24-11.23h92.89a8.5,8.5,0,0,0,0-17Z" transform="translate(-204.04 -412.69)"/><path class="cls-1" d="M735.37,560.27c-48.88,0-50.82-83.5,0-83.5a9,9,0,0,0,0-18c-52.21,0-52.21,119.5,0,119.5a9,9,0,0,0,0-18Z" transform="translate(-204.04 -412.69)"/><path class="cls-1" d="M449.41,516.26H387a23.82,23.82,0,0,0-23.82,23.82V546a12.69,12.69,0,0,1,12.69-12.69h73.56a8.5,8.5,0,1,0,0-17Z" transform="translate(-204.04 -412.69)"/><path class="cls-1" d="M847.23,587.93c-16.89,0-24.79,2.19-46.55-18.66L752,519.81c18,1.05,46-17.49,46-50.7,0-28.66-17.32-53.32-46-53.32H703.63c-32.26,0-49.5,26.25-49.5,58.5v42H596.07c-7,0-12.69,3-12.69,6.78V487.77a11.5,11.5,0,0,1,11.5-11.5h8.5a8.5,8.5,0,1,0,0-17h-8.5c-15.72,0-19.5,12.79-19.5,28.5V602.31a4,4,0,0,0,8,0V546a12.69,12.69,0,0,1,12.69-12.69h58.06v69a4,4,0,0,0,8,0v-128a41.5,41.5,0,0,1,41.5-41.5h47.71c19.11,0,37.18,17.23,37.63,36.32.47,19.68-17.4,33.64-37,33.64a8.5,8.5,0,0,0-6.79,13.61l45.26,60.23c20.18,28.34,34.44,28.34,56.76,28.34h0a8.5,8.5,0,0,0,8.5-8.5h0A8.51,8.51,0,0,0,847.23,587.93Z" transform="translate(-204.04 -412.69)"/></svg>